<?xml version="1.0" encoding="iso-8859-1"?>
<!-- Generator: Adobe Illustrator 19.0.0, SVG Export Plug-In . SVG Version: 6.00 Build 0)  -->
<svg version="1.1" id="Layer_1" xmlns="http://www.w3.org/2000/svg" xmlns:xlink="http://www.w3.org/1999/xlink" x="0px" y="0px"
	 viewBox="0 0 512 512" style="enable-background:new 0 0 512 512;" xml:space="preserve">
<path style="fill:#FF648D;" d="M460.172,284.793c-71.046-15.787-137.745-47.364-183.755-87.95
	c-9.534-8.411-19.449-18.603-29.167-29.461l-38.902-47.553c-3.889-5.116-7.539-10.013-10.871-14.553
	c-11.755-16.016-34.252-19.493-50.272-7.745L43.145,173.842c-19.712,14.455-31.342,37.449-31.304,61.893l0.163,107.168
	l110.432,47.774h224.139l149.72-47.775C496.295,342.902,516.389,297.285,460.172,284.793z"/>
<path style="fill:#FD387E;" d="M460.172,284.793c-71.046-15.787-137.745-47.364-183.755-87.95
	c-6.685-5.897-13.557-12.682-20.417-19.946v213.781h90.574l149.721-47.775C496.295,342.902,516.389,297.285,460.172,284.793z"/>
<g>
	<path style="fill:#EBECEC;" d="M337.584,239.181c-9.943-5.463-19.488-11.245-28.548-17.325l-33.381,53.27l28.295,17.731
		L337.584,239.181z"/>
	<path style="fill:#EBECEC;" d="M261.229,266.748l33.762-54.84c-6.504-4.867-12.71-9.893-18.574-15.066
		c-2.397-2.116-4.821-4.344-7.257-6.667l-36.365,59.068L261.229,266.748z"/>
	<path style="fill:#EBECEC;" d="M384.737,261.444c-10.549-4.246-20.834-8.832-30.783-13.737L320.751,301l28.341,17.656
		L384.737,261.444z"/>
	<path style="fill:#EBECEC;" d="M177.05,367.004l-99.228-61.822c-15.421-10.053-24.627-27.046-24.627-45.454
		c0-22.082,13.188-41.77,33.603-50.176l61.472-25.719l12.888,30.803L99.535,240.42c-7.866,3.227-12.949,10.807-12.949,19.309
		c0,7.031,3.493,13.526,9.35,17.402l98.771,61.534L177.05,367.004z"/>
</g>
<path style="fill:#FD387E;" d="M512,369.26L512,369.26c0,12.471-7.781,23.614-19.488,27.911l0,0
	c-43.728,16.047-89.944,24.26-136.524,24.26H47.116C21.094,421.431,0,400.335,0,374.314l0,0c0-26.022,21.094-47.116,47.116-47.116
	h90.955c30.883,0,61.668,3.455,91.783,10.299l24.603,5.592c45.2,10.272,91.816,12.789,137.858,7.442l67.278-7.814
	c5.901-0.686,11.749-1.727,17.601-2.76C494.939,336.82,512,350.445,512,369.26z"/>
<path style="fill:#C7EAF0;" d="M512,369.26L512,369.26c0,12.471-7.781,23.614-19.488,27.911l0,0
	c-43.728,16.047-89.944,24.26-136.524,24.26H47.116C21.094,421.431,0,400.335,0,374.314l0,0c0-26.022,21.094-47.116,47.116-47.116
	h90.955c30.883,0,61.668,3.455,91.783,10.299l24.603,5.592c45.2,10.272,91.816,12.789,137.858,7.442l67.278-7.814
	c5.901-0.686,11.749-1.727,17.601-2.76C494.939,336.82,512,350.445,512,369.26z"/>
<rect x="119.984" y="141.653" transform="matrix(-0.8254 0.5646 -0.5646 -0.8254 436.6139 209.4767)" style="fill:#BB2A5C;" width="131.855" height="61.214"/>
<path style="fill:#88DEE0;" d="M477.193,339.954c-5.85,1.033-11.699,2.076-17.601,2.76l-67.278,7.814
	c-45.519,5.287-91.597,2.874-136.314-7.108v78.01h99.988c46.58,0,92.796-8.212,136.524-24.26l0,0
	C504.219,392.874,512,381.729,512,369.259C512,350.445,494.939,336.82,477.193,339.954z"/>
<g>
</g>
<g>
</g>
<g>
</g>
<g>
</g>
<g>
</g>
<g>
</g>
<g>
</g>
<g>
</g>
<g>
</g>
<g>
</g>
<g>
</g>
<g>
</g>
<g>
</g>
<g>
</g>
<g>
</g>
</svg>
